<svg width="86" height="86" viewBox="0 0 86 86" fill="none" xmlns="http://www.w3.org/2000/svg">
<circle cx="43" cy="43" r="43" fill="#60D1F6"/>
<circle cx="28.6667" cy="36.8571" r="4.09524" fill="#0A0909"/>
<circle cx="57.3333" cy="36.8571" r="4.09524" fill="#0B0A0A"/>
<path d="M58.3826 60.7143C58.8797 64.2488 53.0263 72.687 43 71.5C34.5263 72.687 30.5471 63.239 29.7424 61.1471C26.5706 58.1896 34.11 59.1995 41.9796 59.1995C49.8491 59.1995 61.8621 58.1896 58.3826 60.7143Z" fill="#020202"/>
<ellipse cx="44.0238" cy="67.5714" rx="9.21429" ry="4.09524" fill="#FF0303"/>
<path d="M36.2046 69.4341C33.5498 67.7845 30.957 64.8318 29.0242 59.631H59.0669C57.9206 64.444 55.3344 67.3498 52.473 69.0736C49.5438 70.8382 46.313 71.3713 44.0189 71.4167C41.724 71.4622 38.9179 71.12 36.2046 69.4341Z" stroke="black" stroke-width="0.5"/>
</svg>
