<svg width="82" height="23" viewBox="0 0 82 23" fill="none" xmlns="http://www.w3.org/2000/svg">
<path d="M8.5 1.5H1V21.5H7.5V10L11.5 21.5H16L20.5 10V21.5H27V1.5H19L13.5 12.5L8.5 1.5Z" fill="white"/>
<path d="M45.5 1.5H32V21.5H45.5V16.5H37V12.5H44V8.5H37V5H45.5V1.5Z" fill="white"/>
<path d="M8.5 1.5H1V21.5H7.5V10L11.5 21.5H16L20.5 10V21.5H27V1.5H19L13.5 12.5L8.5 1.5Z" stroke="white" stroke-width="0.5"/>
<path d="M45.5 1.5H32V21.5H45.5V16.5H37V12.5H44V8.5H37V5H45.5V1.5Z" stroke="white" stroke-width="0.5"/>
<path d="M64 1H50V21H64V16H55.1852V12H62.4444V8H55.1852V4.5H64V1Z" fill="white" stroke="white" stroke-width="0.5"/>
<path d="M73.7792 3.82291C71.6269 3.82292 70.0127 8.9219 71.0888 9.55905C73.2411 7.6476 74.8553 7.64761 77.5456 8.28475C79.9335 9.48697 80.9753 9.9046 81.3121 11.4705C81.3121 11.4705 82.3861 12.8722 81.8502 17.842C80.956 20.0525 80.8356 20.1943 78.0837 21.4669C75.3317 22.7394 72.2265 22.1058 71.0887 21.4669C69.951 20.8279 67.6172 18.0885 67.2606 14.6545C66.8453 11.0565 66.9717 9.13336 67.3223 5.73615C68.3368 2.2663 71.0272 0 74.2556 0C77.484 -3.87423e-06 77.1863 0.26805 79.0982 1.2743C80.5023 2.88872 80.9818 4.00931 81.3121 6.37152L76.3366 6.37152C75.9684 4.64397 75.9315 3.8229 73.7792 3.82291Z" fill="white"/>
<path d="M77.0076 14.6563C77.0076 16.4157 75.803 17.842 74.3172 17.842C72.8314 17.842 71.6269 16.4157 71.6269 14.6563C71.6269 12.8968 72.8314 11.4705 74.3172 11.4705C75.803 11.4705 77.0076 12.8968 77.0076 14.6563Z" fill="#3C3939"/>
</svg>
